<svg width="80" height="45" viewBox="0 0 80 45" fill="none" xmlns="http://www.w3.org/2000/svg">
<path d="M45.4306 0.333496C32.9347 0.333496 22.0222 7.94044 15.9486 14.4488L3.81945 5.27516C2.13473 4.00016 -0.38055 5.3585 0.050006 7.31127L3.40834 22.5557L0.0486171 37.8015C-0.381938 39.7543 2.13334 41.1113 3.81806 39.8377L15.9472 30.664C22.0208 37.171 32.9347 44.7779 45.4306 44.7779C64.5222 44.7779 80 27.0002 80 22.5557C80 18.1113 64.5222 0.333496 45.4306 0.333496ZM57.5736 25.889C55.7333 25.889 54.2403 24.396 54.2403 22.5557C54.2403 20.714 55.7333 19.2224 57.5736 19.2224C59.4153 19.2224 60.907 20.714 60.907 22.5557C60.907 24.396 59.4139 25.889 57.5736 25.889Z" fill="#1A059D"/>
</svg>
