<svg width="67" height="67" viewBox="0 0 67 67" fill="none" xmlns="http://www.w3.org/2000/svg">
<g clip-path="url(#clip0)">
<path d="M43.2713 34.4319V22.6912L36.3684 19.5217C28.7158 28.6269 25.8552 52.3439 7.32812 52.3439C5.38459 52.3439 3.52065 53.1159 2.14636 54.4902C0.772068 55.8645 0 57.7285 0 59.672C0 61.6155 0.772068 63.4795 2.14636 64.8538C3.52065 66.2281 5.38459 67.0001 7.32812 67.0001C35.1541 67.0001 55.8312 50.9214 62.1818 39.4752L57.3334 34.4319H43.2713ZM60.4256 17.6334C64.6341 9.80282 62.4435 3.4653 60.0147 0.392726C59.9221 0.277817 59.8062 0.183799 59.6746 0.116841C59.5431 0.0498825 59.3989 0.0114985 59.2515 0.00420764C59.104 -0.00308326 58.9567 0.0208837 58.8192 0.0745357C58.6817 0.128188 58.5571 0.210312 58.4536 0.315519L55.4569 3.32528C55.2849 3.50008 55.1791 3.72936 55.1579 3.97368C55.1366 4.218 55.2012 4.4621 55.3404 4.66397C56.2381 6.01968 57.5716 9.25714 55.1572 14.1277C52.7983 13.0965 50.2518 12.5637 47.6773 12.5626C44.0132 12.5626 40.6109 13.6802 37.6875 15.5188L47.4588 20.0059V30.2444H59.117L66.2724 37.6876C66.699 36.0362 67 34.3337 67 32.5436C67.0026 29.7375 66.4192 26.9619 65.2871 24.3944C64.155 21.8268 62.4991 19.524 60.4256 17.6334Z" fill="#DE0D00"/>
</g>
<defs>
<clipPath id="clip0">
<rect width="67" height="67" fill="white"/>
</clipPath>
</defs>
</svg>
