<svg width="66" height="60" viewBox="0 0 66 60" fill="none" xmlns="http://www.w3.org/2000/svg">
<path d="M62.5851 1.13934C61.9434 -0.32531 60.1099 -0.383896 59.3421 0.998731C55.7897 7.31429 49.4297 11.2513 42.1644 11.2513H32.9969C20.8499 11.2513 10.9948 21.328 10.9948 33.7482C10.9948 34.5684 11.0865 35.3535 11.1667 36.1503C18.4778 30.7955 29.0319 26.2493 43.9979 26.2493C45.0063 26.2493 45.8314 27.0929 45.8314 28.124C45.8314 29.1551 45.0063 29.9987 43.9979 29.9987C15.1889 29.9987 2.97318 48.0549 0.268756 54.8392C-0.487566 56.7491 0.406269 58.9285 2.27415 59.7135C4.1535 60.5103 6.28495 59.5846 7.06419 57.6864C7.23608 57.2646 9.45921 52.0739 15.3035 47.0707C19.0164 52.2145 26.0754 57.124 35.346 56.1163C53.3373 54.7806 66 38.2828 66 18.0824C66 12.2004 64.7624 6.10742 62.5851 1.13934Z" fill="#218E0F"/>
</svg>
